<?xml version="1.0" encoding="utf-8"?>
<!-- Generator: Adobe Illustrator 25.4.1, SVG Export Plug-In . SVG Version: 6.00 Build 0)  -->
<svg version="1.1" id="Layer_1" xmlns="http://www.w3.org/2000/svg" xmlns:xlink="http://www.w3.org/1999/xlink" x="0px" y="0px"
	 viewBox="0 0 100 100" style="enable-background:new 0 0 100 100;" xml:space="preserve">
<style type="text/css">
	.st0{fill:#E5422B;}
</style>
<g>
	<path class="st0" d="M89.5,0h-79C4.7,0,0,4.7,0,10.5v78.9C0,95.3,4.7,100,10.5,100h78.9c5.8,0,10.5-4.7,10.5-10.5v-79
		C100,4.7,95.3,0,89.5,0z M70,71.9H30.9c-8.1,0-13.6-5.3-13.6-11.9c0-5.6,4-11,9.7-11.9c0-9.4,8.8-13.6,15.1-10.3
		c2.4-4.8,7.5-8.8,14.4-8.8c9.9,0,17,9,16,17.7c5.8,1.1,10.3,6.4,10.3,12.5C82.8,66.2,77,71.9,70,71.9z"/>
</g>
</svg>
